<?xml version="1.0" encoding="utf-8"?>
<!-- Generator: Adobe Illustrator 25.2.1, SVG Export Plug-In . SVG Version: 6.00 Build 0)  -->
<svg version="1.1" id="l" xmlns="http://www.w3.org/2000/svg" xmlns:xlink="http://www.w3.org/1999/xlink" x="0px" y="0px"
	 viewBox="0 0 1034 145.9" style="enable-background:new 0 0 1034 145.9;" xml:space="preserve">
<g>
	<path d="M3.2,28.5l21.2-4l4-21.2c0-0.7,0.5-1.2,1.2-1.2s1.2,0.5,1.2,1.2l4,21.2l21.2,4c0.7,0,1.2,0.5,1.2,1.2S56.7,31,56.1,31
		l-21.2,4l-4,21.2c0,0.7-0.5,1.2-1.2,1.2c-0.7,0-1.2-0.5-1.2-1.2l-4-21.2L3.2,30.9c-0.7,0-1.2-0.5-1.2-1.2C2,29,2.5,28.5,3.2,28.5
		L3.2,28.5z"/>
	<path d="M182.5,111.8l0-1.5l0-3l0-12l0-23.9c0-8,0-15.9-0.1-23.9l-0.1-6l-0.1-3l0-0.8l-0.1-1.2c-0.1-0.8-0.2-1.5-0.5-2.3
		c-0.9-3-2.9-5.6-5.5-7.2c-1.3-0.8-2.8-1.4-4.3-1.7c-0.8-0.1-1.5-0.2-2.3-0.2l-0.5,0l-0.4,0l-0.7,0l-47.8-0.2l-23.9-0.1l-23.9-0.2
		c0,0-0.1,0-0.1,0c-2.9,0-5.2,2.4-5.1,5.2c0,2.9,2.4,5.2,5.2,5.1l23.9-0.3l23.9-0.1l43.9-0.3l-52.5,42.6l-3.7,3l-1.9,1.5l-0.2,0.2
		c-0.1,0.1-0.1,0.1-0.1,0.1c-0.1,0-0.1,0.1-0.2,0.1c-0.1,0.1-0.3,0.2-0.4,0.2c-0.6,0.3-1.3,0.4-1.9,0.3c-0.7-0.1-1.2-0.2-1.9-0.7
		L86.5,69.4L57,45.2c0,0,0,0-0.1,0c-2.3-1.8-5.6-1.4-7.4,0.8c-1.8,2.3-1.4,5.6,0.8,7.4l29.8,23.9L95,89.1l0.7,0.5
		c0.2,0.2,0.5,0.4,0.8,0.5c0.5,0.4,1.1,0.6,1.7,0.9c1.1,0.5,2.4,0.9,3.6,1c2.5,0.3,5.1-0.1,7.4-1.2c0.6-0.3,1.1-0.6,1.7-0.9
		c0.5-0.3,1.1-0.8,1.3-1l1.9-1.5l3.7-3l55-44.7l0,1.7l-0.1,6c-0.1,8-0.1,15.9-0.1,23.9l0,23.9l0,12l0,3l0,1.5c0,0.5,0,1.1,0,1.2
		c0,0.8-0.4,1.5-0.9,2.1c-0.6,0.6-1.3,0.9-2.1,0.9l-0.1,0l-0.1,0l-0.2,0l-0.7,0l-1.5,0l-3,0l-12,0l-23.9,0l-47.8-0.1l-23.9,0l-12,0
		l-6,0l-0.4,0l-0.1,0c-0.1,0-0.2,0-0.3,0c-0.2,0-0.4-0.1-0.5-0.1c-0.3-0.1-0.7-0.3-0.9-0.5c-0.6-0.5-1-1.1-1.1-1.8
		c0-0.2,0-0.3-0.1-0.6l0-1.5l0-3l0-12l-0.1-23.9c0-2.8-2.3-5.1-5.2-5.2c-2.9,0-5.2,2.3-5.2,5.2l-0.1,23.9l0,12l0,3l0,1.5
		c0,0.7,0.1,1.6,0.2,2.4c0.5,3.2,2.3,6.2,4.8,8.2c1.3,1,2.7,1.8,4.3,2.3c0.8,0.2,1.6,0.4,2.4,0.5c0.4,0.1,0.8,0.1,1.2,0.1l0.6,0
		l0.4,0l6,0l12,0l23.9,0l47.8-0.1l23.9,0l12,0l3,0l1.5,0l0.7,0h0.2l0.3,0l0.6,0c3.2-0.2,6.3-1.6,8.5-3.9c2.3-2.3,3.6-5.4,3.8-8.6
		C182.5,112.6,182.5,112.3,182.5,111.8z"/>
	<g>
		<g>
			<path d="M302.5,101.1h-36.9l-7.9,22.6h-17.2l34-92.7h19.7l34,92.7h-17.8L302.5,101.1z M270.5,87.5h27.1l-13.5-38.1h-0.3
				L270.5,87.5z"/>
			<path d="M368.8,52.2c15.8,0,26.2,9,27.6,22.5l-15,3.2c-0.6-7.1-4.7-12.8-12.5-12.8c-10.6,0-15.8,9.6-15.8,23.7
				c0,14.3,5.3,23.6,16,23.6c7.2,0,11.8-5.3,12.5-12.9l15.1,4c-2.4,13.6-12.8,21.8-27.6,21.8c-20.1,0-33-13.7-33-36.5
				S349,52.2,368.8,52.2z"/>
			<path d="M454.3,110.7c-3.2,9.9-11.1,14.7-21.8,14.7c-11.5,0-21.7-7.2-21.7-22.5v-49h17.1v45.2c0,8,4,12.8,11.2,12.8
				c7.9,0,14.3-5.6,14.3-18.5V53.9h17.2v69.8h-14.3L454.3,110.7z"/>
			<path d="M848.8,52.2c12.5,0,21.5,7.5,21.5,22.1v49.4h-17.1V79.4c0-7.8-3.1-12.8-11.2-12.8c-7.2,0-13.6,5-13.6,17.8v39.3h-17.2
				V79.4c0-7.8-3-12.8-11.1-12.8c-7.4,0-13.7,5.1-13.7,17.9v39.1h-17.1V53.9h14l2.1,13.5c3.2-9.7,11.5-15.1,21.4-15.1
				s17.6,5.3,20.3,14.7C830.4,57.9,839.1,52.1,848.8,52.2z"/>
			<path d="M570.8,52.2c12.5,0,21.5,7.5,21.5,22.1v49.4h-17V79.4c0-7.8-3.1-12.8-11.2-12.8c-7.2,0-13.6,5-13.6,17.8v39.3h-17.2V79.4
				c0-7.8-3.1-12.8-11.1-12.8c-7.4,0-13.7,5.1-13.7,17.9v39.1h-17.1V53.9h14l2.1,13.5c3.2-9.7,11.5-15.1,21.4-15.1
				s17.6,5.3,20.3,14.7C552.4,57.9,561.1,52.1,570.8,52.2z"/>
			<path d="M629.2,65.7c2.6-8.2,11-13.5,20.5-13.5c18.7,0,28.7,15.3,28.7,36.1c0,21.9-11.7,37-29.8,37c-10,0-18.2-5.3-20.7-14.1
				l-1.9,12.5h-13.9V23.5h17.1V65.7z M629.2,93.7c0,13.3,7.5,18.7,15,18.7c10,0,16.8-8,16.8-23.9c0-15.6-6.2-23-16.5-23
				c-7.8,0-15.3,6.1-15.3,19.4L629.2,93.7z"/>
			<path d="M942.5,106.8c0,4,1.9,5.4,4.9,5.4c1.5,0,2.9-0.5,4-1.4l0.7,11.7c-3,1.8-6.5,2.7-10,2.6c-5.8,0-10.3-2.2-12.9-6.3
				c-0.9-1.6-1.6-3.4-2.1-5.1c-2.7,7.4-11.1,11.4-20.1,11.4c-12.8,0-21.9-7.2-21.9-19.9c0-13.9,11.7-22.2,33.4-22.2
				c2.6,0,5.1,0.2,7.6,0.4v-7.7c0-6.7-3.6-10.7-10.8-10.7s-10.8,4.2-11,11l-16.1-2.5c1.4-13.5,12.3-21.2,27.9-21.2
				c17.3,0,26.4,7.8,26.4,22.5L942.5,106.8z M926.1,93.3c-1.5-0.1-3.6-0.4-5.7-0.4c-12.2,0-18.7,3.6-18.7,11.2
				c0,5.6,3.9,9.3,10.5,9.3c6.9,0,13.9-4.3,13.9-15.3V93.3z"/>
			<path d="M746.8,106.8c0,4,1.9,5.4,4.9,5.4c1.5,0,2.9-0.5,4-1.4l0.7,11.7c-3,1.8-6.5,2.7-10,2.6c-5.8,0-10.3-2.2-12.9-6.3
				c-0.9-1.6-1.6-3.3-2.1-5.1c-2.7,7.4-11.1,11.4-20.1,11.4c-12.8,0-21.9-7.2-21.9-19.9c0-13.9,11.7-22.2,33.4-22.2
				c2.6,0,5.1,0.2,7.6,0.4v-7.7c0-6.7-3.6-10.7-10.8-10.7s-10.8,4.2-11,11l-16.1-2.5c1.4-13.5,12.4-21.3,27.9-21.3
				c17.3,0,26.4,7.8,26.4,22.5V106.8z M730.4,93.3c-1.5-0.1-3.6-0.4-5.7-0.4c-12.2,0-18.7,3.6-18.7,11.2c0,5.6,3.9,9.3,10.5,9.3
				c6.9,0,13.9-4.3,13.9-15.3V93.3z"/>
			<rect x="965" y="53.9" width="17" height="69.8"/>
			<path d="M957.9,32.8l12.5-2.4l2.4-12.5c0-0.4,0.3-0.7,0.7-0.7c0.4,0,0.7,0.3,0.7,0.7l0,0l2.4,12.5l12.5,2.4
				c0.4,0.1,0.7,0.4,0.6,0.8c-0.1,0.3-0.3,0.5-0.6,0.6l-12.5,2.4l-2.4,12.5c0,0.4-0.3,0.7-0.7,0.7c-0.4,0-0.7-0.3-0.7-0.7l-2.4-12.5
				l-12.5-2.4c-0.4-0.1-0.7-0.4-0.6-0.8C957.3,33.1,957.6,32.8,957.9,32.8z"/>
			<path d="M1031,122.1c-3.9,2.1-8.3,3.1-12.8,3.1c-9.3,0-16.9-4.4-16.9-16.7v-85h17.1v81.7c0,4.3,1.9,6.2,5.7,6.2
				c2,0,4-0.6,5.7-1.8L1031,122.1z"/>
		</g>
	</g>
</g>
</svg>
