<?xml version="1.0" encoding="UTF-8"?>
<svg id="Capa_2" data-name="Capa 2" xmlns="http://www.w3.org/2000/svg" xmlns:xlink="http://www.w3.org/1999/xlink" viewBox="0 0 466 60">
  <defs>
    <style>
      .cls-1 {
        fill: #0090d1;
      }

      .cls-2 {
        fill: url(#Degradado_sin_nombre_17-2);
      }

      .cls-3 {
        fill: url(#Degradado_sin_nombre_19-2);
      }

      .cls-4 {
        fill: url(#Degradado_sin_nombre_20-2);
      }

      .cls-5 {
        fill: url(#Degradado_sin_nombre_21-2);
      }

      .cls-6 {
        fill: url(#Degradado_sin_nombre_23-2);
      }

      .cls-7 {
        fill: url(#Degradado_sin_nombre_24-2);
      }

      .cls-8 {
        fill: url(#Degradado_sin_nombre_17);
      }

      .cls-9 {
        fill: url(#Degradado_sin_nombre_18);
      }

      .cls-10 {
        fill: url(#Degradado_sin_nombre_19);
      }

      .cls-11 {
        fill: url(#Degradado_sin_nombre_24);
      }

      .cls-12 {
        fill: url(#Degradado_sin_nombre_23);
      }

      .cls-13 {
        fill: url(#Degradado_sin_nombre_20);
      }

      .cls-14 {
        fill: url(#Degradado_sin_nombre_22);
      }

      .cls-15 {
        fill: url(#Degradado_sin_nombre_21);
      }
    </style>
    <linearGradient id="Degradado_sin_nombre_17" data-name="Degradado sin nombre 17" x1="39.81" y1="1307.5" x2="58.58" y2="1307.5" gradientTransform="translate(0 -1258.9)" gradientUnits="userSpaceOnUse">
      <stop offset=".1" stop-color="#e62f72"/>
      <stop offset=".9" stop-color="#ec694a"/>
    </linearGradient>
    <linearGradient id="Degradado_sin_nombre_24" data-name="Degradado sin nombre 24" x1=".21" y1="1275.74" x2="21.69" y2="1275.74" gradientTransform="translate(0 -1258.9)" gradientUnits="userSpaceOnUse">
      <stop offset="0" stop-color="#119ed9"/>
      <stop offset="1" stop-color="#72bfeb"/>
    </linearGradient>
    <linearGradient id="Degradado_sin_nombre_23" data-name="Degradado sin nombre 23" x1=".21" y1="1290.66" x2="21.69" y2="1290.66" gradientTransform="translate(0 -1258.9)" gradientUnits="userSpaceOnUse">
      <stop offset="0" stop-color="#119ed9"/>
      <stop offset="1" stop-color="#007ec2"/>
    </linearGradient>
    <linearGradient id="Degradado_sin_nombre_21" data-name="Degradado sin nombre 21" x1="7.7" y1="1311.03" x2="16.89" y2="1300.81" gradientTransform="translate(0 -1258.9)" gradientUnits="userSpaceOnUse">
      <stop offset="0" stop-color="#1860aa"/>
      <stop offset="1" stop-color="#007ec2"/>
    </linearGradient>
    <linearGradient id="Degradado_sin_nombre_19" data-name="Degradado sin nombre 19" x1="39.26" y1="1291.94" x2="59.14" y2="1291.94" gradientTransform="translate(0 -1258.9)" gradientUnits="userSpaceOnUse">
      <stop offset="0" stop-color="#f8b133"/>
      <stop offset=".7" stop-color="#ec694a"/>
    </linearGradient>
    <linearGradient id="Degradado_sin_nombre_20" data-name="Degradado sin nombre 20" x1="36.62" y1="1277.51" x2="57.7" y2="1277.51" gradientTransform="translate(0 -1258.9)" gradientUnits="userSpaceOnUse">
      <stop offset=".2" stop-color="#f8b133"/>
      <stop offset=".8" stop-color="#ffd631"/>
    </linearGradient>
    <linearGradient id="Degradado_sin_nombre_24-2" data-name="Degradado sin nombre 24" y1="1268.07" x2="27.6" y2="1268.07" xlink:href="#Degradado_sin_nombre_24"/>
    <linearGradient id="Degradado_sin_nombre_23-2" data-name="Degradado sin nombre 23" x1="-1.47" y1="1282.92" x2="18.26" y2="1282.92" xlink:href="#Degradado_sin_nombre_23"/>
    <linearGradient id="Degradado_sin_nombre_22" data-name="Degradado sin nombre 22" x1="15.08" y1="1305.99" x2="26.89" y2="1315.01" gradientTransform="translate(0 -1258.9)" gradientUnits="userSpaceOnUse">
      <stop offset="0" stop-color="#1860aa"/>
      <stop offset="1" stop-color="#164193"/>
    </linearGradient>
    <linearGradient id="Degradado_sin_nombre_21-2" data-name="Degradado sin nombre 21" x1="3.06" y1="1305.73" x2="15.79" y2="1291.52" xlink:href="#Degradado_sin_nombre_21"/>
    <linearGradient id="Degradado_sin_nombre_20-2" data-name="Degradado sin nombre 20" x1="37.02" y1="1273.63" x2="64.09" y2="1273.63" xlink:href="#Degradado_sin_nombre_20"/>
    <linearGradient id="Degradado_sin_nombre_19-2" data-name="Degradado sin nombre 19" x1="36.31" y1="1284.03" x2="58.98" y2="1284.03" xlink:href="#Degradado_sin_nombre_19"/>
    <linearGradient id="Degradado_sin_nombre_18" data-name="Degradado sin nombre 18" x1="38.94" y1="1325.24" x2="43.84" y2="1308.22" gradientTransform="translate(0 -1258.9)" gradientUnits="userSpaceOnUse">
      <stop offset="0" stop-color="#c2006b"/>
      <stop offset=".9" stop-color="#e62f72"/>
    </linearGradient>
    <linearGradient id="Degradado_sin_nombre_17-2" data-name="Degradado sin nombre 17" x1="40.8" y1="1303.4" x2="59.69" y2="1299.27" xlink:href="#Degradado_sin_nombre_17"/>
  </defs>
  <g>
    <g>
      <path class="cls-8" d="M39.81,46.88l.16-.77c.16-.54.16-1.07.16-1.07l18.44,5.45s-.16.31-.48.69c-.4.54-.88,1-.88,1l-17.41-5.37v.08Z"/>
      <polygon class="cls-11" points=".21 14.43 21.69 17.19 21.69 19.26 .21 16.96 .21 14.43"/>
      <polygon class="cls-12" points=".21 33.45 21.69 31.69 21.69 30.08 .21 31.69 .21 33.45"/>
      <path class="cls-15" d="M2.69,49.18l19.32-7.75s.16.84.32,1.53c.16.61.32,1.07.32,1.07l-18.44,7.29s-.24-.23-.64-.77c-.64-.84-.88-1.38-.88-1.38Z"/>
      <path class="cls-10" d="M39.26,33.76s.16.84.24,1.38,19.64-2.69,19.64-2.69c0,0-.24-1.07-.32-1.53s-19.56,2.84-19.56,2.84Z"/>
      <path class="cls-13" d="M36.62,17.42s.16-.77.48-1.53c.32-.84.64-1.38.64-1.38l20.04,6.6s0,.23-.16.46c-.16.61-.16,1.15-.16,1.15l-20.76-5.29h-.08Z"/>
    </g>
    <g>
      <path class="cls-7" d="M27.6,18.19V7.91h-5.91V.16h-4.15C6.12.16.21,4.45.21,13.66v1.92l22.2,2.61s5.19,0,5.19,0Z"/>
      <polygon class="cls-6" points="21.69 18.26 21.69 18.19 22.41 18.19 .21 15.58 .21 32.45 21.69 31 21.69 18.26"/>
      <path class="cls-14" d="M34.78,49.18c-.8.15-2.4.23-3.35.23-5.67,0-8.06-2.69-9.1-6.52l-18.68,7.59c3.35,4.53,8.86,7.44,15.33,8.44,0,0,11.98-2.69,15.81-9.82v.08Z"/>
      <path class="cls-5" d="M21.69,37.36v-6.37L.21,32.45v7.21c0,4.3,1.2,7.9,3.35,10.89l18.68-7.59c-.48-1.69-.56-3.61-.56-5.6Z"/>
      <path class="cls-4" d="M64.09,18.19V7.91h-13.81c-6.71,0-11.5,3.22-13.25,7.98l20.52,5.68c.64-2.61,3.11-3.45,6.55-3.38Z"/>
      <path class="cls-3" d="M57.54,24.78c-.16-1.3-.16-2.38,0-3.22l-20.52-5.68c-.8,2.15-.96,4.68-.32,7.36.96,4.3,2,7.75,2.71,11.12l19.64-2.69c-.72-3.3-1.36-6.14-1.52-6.9Z"/>
      <path class="cls-9" d="M39.97,46.11c-1.2,5.6-5.59,10.05-13.73,12.89l.16.77c.72,0,2.63.08,6.87.08,9.34,0,19.96-2.15,24.83-8.59l-18.12-5.06v-.08Z"/>
      <path class="cls-2" d="M60.73,42.81c0-2.45-.88-7.13-1.76-11.12l-19.64,2.69c.56,2.69.88,5.45.88,8.59s-.08,2.15-.32,3.15l18.12,5.06c1.68-2.22,2.71-4.99,2.71-8.36Z"/>
    </g>
  </g>
  <g>
    <path class="cls-1" d="M116.98,6.55l8.65,47.2h-9.44l-1.64-10.69h-16.19l-5.18,10.69h-9.51L108.06,6.55h8.91ZM113.44,35.46l-2.69-18.55-8.72,18.55h11.41Z"/>
    <path class="cls-1" d="M159.19,49.68c-4.06,3.08-9.18,4.92-14.36,4.92-8.78,0-13.77-5.9-13.77-14.69,0-13.31,7.87-21.57,19.54-21.57,8.91,0,13.18,4.85,11.93,13.83h-7.08c.33-4.59-1.84-6.75-5.44-6.75-5.84,0-9.9,5.11-9.9,13.5,0,4.98,2.16,8.39,6.75,8.39,3.61,0,6.56-1.25,10.1-3.15l2.23,5.51Z"/>
    <path class="cls-1" d="M186.99,53.75l.07-4.52c-2.95,2.82-6.42,5.38-11.34,5.38-7.87,0-10.1-5.38-8.92-12.59l3.8-22.88h8.52l-3.54,21.37c-.79,4.59-.07,6.75,3.74,6.75,3.08,0,5.84-1.77,7.8-3.74l4.06-24.39h8.52l-5.77,34.61h-6.95Z"/>
    <path class="cls-1" d="M215.37,19.14l-.07,4.52c2.69-2.69,6.29-5.31,11.08-5.31,4.39,0,6.62,2.03,7.34,5.18,3.02-2.75,6.75-5.18,11.6-5.18,6.62,0,8.65,4.46,7.47,11.41l-4,23.99h-8.46l3.74-22.29c.59-3.54,0-5.64-3.28-5.64-2.82,0-5.57,2.36-6.82,3.54l-4.06,24.39h-8.46l3.67-22.03c.59-3.61.26-5.9-3.02-5.9-2.95,0-5.7,2.36-7.08,3.67l-4.06,24.26h-8.52l5.77-34.61h7.15Z"/>
    <path class="cls-1" d="M257.39,53.75l7.87-47.2h8.52l-2.75,16.59c2.95-2.88,6.62-4.78,10.95-4.78,6.88,0,11.28,4.78,11.28,13.77,0,12.52-5.57,22.42-18.42,22.42-5.05,0-7.93-2.75-9.31-5.05l-1.38,4.26h-6.75ZM267.68,43.33c.98,1.97,3.15,4,6.62,4,5.97,0,9.7-4.78,9.7-14.03,0-5.11-1.97-7.74-5.77-7.74-3.28,0-6.03,1.97-8.39,4.59l-2.16,13.18Z"/>
    <path class="cls-1" d="M320.98,49.29c-2.1,2.43-5.97,5.31-11.34,5.31-7.74,0-11.34-5.24-11.34-13.96,0-13.83,8.06-22.29,17.7-22.29,4.33,0,7.54,1.57,9.7,5.18l1.31-4.39h7.01l-5.77,34.61h-7.54l.26-4.46ZM323.73,29.69c-.98-1.57-3.15-3.93-6.75-3.93-5.7,0-9.57,4.98-9.57,13.57,0,4.39.98,7.93,5.57,7.93,3.47,0,6.88-2.23,8.46-3.87l2.29-13.7Z"/>
    <path class="cls-1" d="M349.76,19.14l-.07,4.52c2.69-2.69,6.29-5.31,11.08-5.31,4.39,0,6.62,2.03,7.34,5.18,3.02-2.75,6.75-5.18,11.6-5.18,6.62,0,8.65,4.46,7.47,11.41l-4,23.99h-8.46l3.74-22.29c.59-3.54,0-5.64-3.28-5.64-2.82,0-5.57,2.36-6.82,3.54l-4.06,24.39h-8.46l3.67-22.03c.59-3.61.26-5.9-3.02-5.9-2.95,0-5.7,2.36-7.08,3.67l-4.06,24.26h-8.52l5.77-34.61h7.15Z"/>
    <path class="cls-1" d="M415.51,49.29c-2.1,2.43-5.96,5.31-11.34,5.31-7.74,0-11.34-5.24-11.34-13.96,0-13.83,8.06-22.29,17.7-22.29,4.33,0,7.54,1.57,9.7,5.18l1.31-4.39h7.01l-5.77,34.61h-7.54l.26-4.46ZM418.26,29.69c-.98-1.57-3.15-3.93-6.75-3.93-5.7,0-9.57,4.98-9.57,13.57,0,4.39.98,7.93,5.57,7.93,3.47,0,6.88-2.23,8.46-3.87l2.3-13.7Z"/>
    <path class="cls-1" d="M440.22,53.75h-8.46l5.77-34.61h8.46l-5.77,34.61ZM444.09,5.76c2.69,0,4.46,1.31,4.46,3.8,0,3.21-2.56,5.11-5.9,5.11-2.49,0-4.39-1.38-4.39-3.74,0-3.34,2.82-5.18,5.84-5.18Z"/>
    <path class="cls-1" d="M449.33,53.75l7.87-47.2h8.52l-7.87,47.2h-8.52Z"/>
  </g>
</svg>